<?xml version="1.0" standalone="no"?>
<!DOCTYPE svg PUBLIC "-//W3C//DTD SVG 20010904//EN"
 "http://www.w3.org/TR/2001/REC-SVG-20010904/DTD/svg10.dtd">
<svg version="1.0" xmlns="http://www.w3.org/2000/svg"
 width="300.000000pt" height="84.000000pt" viewBox="0 0 300.000000 84.000000"
 preserveAspectRatio="xMidYMid meet">

<g transform="translate(0.000000,84.000000) scale(0.100000,-0.100000)"
fill="#000000" stroke="none">
<path d="M0 420 l0 -420 1500 0 1500 0 0 420 0 420 -1500 0 -1500 0 0 -420z
m430 310 l0 -61 -140 3 c-119 3 -140 1 -141 -12 0 -8 0 -41 1 -72 1 -32 -3
-58 -8 -58 -6 0 -10 23 -10 52 -1 31 -6 54 -14 60 -9 5 -10 10 -2 16 6 4 10
29 9 55 -1 34 2 47 10 43 6 -2 18 0 26 5 10 7 -2 9 -38 7 -28 -2 -49 0 -46 5
7 12 -22 8 -37 -5 -12 -11 -12 -10 -3 2 10 13 45 16 202 19 l191 2 0 -61z
m168 -312 l2 -368 -60 0 -60 0 0 370 0 371 58 -3 57 -3 3 -367z m472 312 l0
-60 -207 2 -208 3 -3 44 c-5 74 -16 71 213 71 l205 0 0 -60z m472 -7 l68 -67
0 -106 0 -106 -109 -100 -109 -99 109 -3 109 -3 0 -99 0 -100 -265 0 -265 0 0
103 1 102 154 139 c142 127 155 141 155 172 0 34 -1 34 -45 34 l-45 0 0 -45 0
-45 -110 0 -110 0 0 82 0 81 63 62 62 62 135 2 134 1 68 -67z m162 45 c8 -13
36 -70 61 -128 26 -58 58 -129 71 -158 23 -50 24 -63 24 -242 l0 -190 -60 0
-60 0 0 174 0 173 -60 133 c-34 73 -72 157 -85 185 -14 29 -25 57 -25 63 0 8
21 12 60 12 51 0 62 -3 74 -22z m326 11 c0 -11 -28 -73 -105 -238 l-31 -64
-33 75 -32 75 26 59 c45 102 47 104 115 104 38 0 60 -4 60 -11z m210 -49 c0
-51 -3 -60 -18 -60 -39 0 -42 -16 -42 -250 0 -234 3 -250 42 -250 15 0 18 -9
18 -60 l0 -60 -53 0 c-48 0 -56 3 -90 38 l-36 37 -1 290 -1 290 42 43 c39 38
48 42 91 42 l48 0 0 -60z m190 18 l40 -43 0 -289 0 -289 -37 -38 c-35 -36 -43
-39 -90 -39 l-53 0 0 60 c0 51 3 60 18 60 39 0 42 16 42 250 0 234 -3 250 -42
250 -15 0 -18 9 -18 60 l0 60 50 0 c47 0 54 -3 90 -42z m230 -255 c0 -164 4
-304 9 -311 4 -7 18 -14 29 -15 20 -1 22 -7 22 -59 l0 -58 -56 0 c-47 0 -55 3
-50 16 3 9 2 12 -5 9 -12 -8 -40 25 -32 38 2 4 1 7 -4 6 -33 -6 -33 -2 -33
336 l0 335 60 0 60 0 0 -297z m207 249 c-13 -17 -1 -28 16 -14 17 15 27 6 27
-24 0 -12 6 -24 14 -27 22 -9 27 4 11 29 -13 20 -12 23 1 28 24 9 6 26 -27 26
-16 0 -29 5 -29 10 0 6 18 10 40 10 l40 0 0 -320 c0 -207 -4 -320 -10 -320 -5
0 -10 -6 -10 -13 0 -7 -15 -28 -34 -46 -30 -29 -38 -32 -82 -29 l-49 3 -3 57
c-3 55 -2 58 21 58 46 0 48 10 45 319 -3 252 -1 291 12 294 19 4 31 -24 17
-41z m-2790 -69 c-3 -10 -5 -4 -5 12 0 17 2 24 5 18 2 -7 2 -21 0 -30z m34
-63 c5 0 9 -19 8 -42 0 -33 -2 -38 -9 -23 -5 11 -9 15 -9 9 -1 -7 -8 -14 -15
-17 -10 -4 -13 -1 -9 9 3 7 -1 14 -7 14 -9 0 -8 6 3 18 10 10 17 27 17 38 0
16 -2 17 -10 4 -8 -12 -10 -11 -10 8 0 12 5 22 10 22 6 0 11 8 12 18 1 9 3 0
5 -20 2 -21 8 -38 14 -38z m814 -275 l0 -280 -62 -3 -63 -3 0 286 0 286 63 -3
62 -3 0 -280z m-615 85 l0 -60 -80 0 c-57 0 -80 -4 -81 -12 -1 -7 -1 -60 0
-118 1 -58 -3 -112 -9 -120 -7 -11 -10 12 -12 80 l-2 95 -6 -85 c-7 -84 -7
-83 -6 33 0 71 3 112 9 105 5 -8 6 -2 2 17 -4 17 -12 37 -19 45 -7 8 -16 23
-20 34 -4 11 -12 16 -21 12 -8 -3 -15 -1 -15 5 0 7 11 9 28 5 20 -5 23 -4 12
4 -23 15 -50 12 -50 -7 0 -9 -3 -14 -6 -10 -4 3 -4 13 -1 22 5 12 29 15 142
15 l135 0 0 -60z m-219 -60 c5 0 9 -18 9 -41 0 -23 -4 -38 -10 -34 -5 3 -7 19
-4 34 4 16 1 32 -5 35 -6 4 -10 15 -10 24 1 15 2 15 6 0 2 -10 9 -18 14 -18z
m5 -257 c-3 -4 -6 -1 -6 6 0 7 -4 9 -10 6 -6 -4 -7 1 -3 11 6 15 7 15 15 -1 6
-9 7 -19 4 -22z m4 -28 c0 -8 -5 -15 -11 -15 -5 0 -8 4 -5 9 4 5 0 12 -6 14
-8 3 -6 6 5 6 9 1 17 -6 17 -14z m43 -12 c-7 -2 -19 -2 -25 0 -7 3 -2 5 12 5
14 0 19 -2 13 -5z"/>
<path d="M1192 677 c-32 -32 -42 -51 -42 -75 0 -31 2 -32 40 -32 35 0 40 3 40
23 0 13 10 33 23 45 19 18 35 22 94 22 65 0 73 -2 92 -26 16 -20 21 -41 21
-84 l0 -58 -121 -108 c-67 -60 -136 -122 -155 -137 -31 -26 -34 -34 -34 -83
l0 -54 195 0 195 0 0 36 0 35 -152 -1 c-84 -1 -156 -1 -160 -1 -4 1 14 20 40
44 26 23 98 89 160 146 l112 104 0 80 0 81 -42 43 -42 43 -111 0 -111 0 -42
-43z"/>
<path d="M2933 400 c0 -25 2 -35 4 -22 2 12 2 32 0 45 -2 12 -4 2 -4 -23z"/>
<path d="M2920 240 c0 -22 -5 -40 -10 -40 -7 0 -7 -6 0 -19 5 -11 10 -22 10
-24 0 -10 -61 -26 -78 -21 -16 5 -16 5 1 -6 9 -6 17 -18 17 -25 0 -8 6 -15 13
-15 16 1 48 26 41 33 -3 3 3 12 15 19 18 11 21 23 21 75 0 49 -3 63 -15 63
-11 0 -15 -11 -15 -40z"/>
<path d="M2850 185 c-11 -13 -10 -14 4 -9 9 3 16 10 16 15 0 13 -6 11 -20 -6z"/>
<path d="M2808 93 c7 -3 16 -2 19 1 4 3 -2 6 -13 5 -11 0 -14 -3 -6 -6z"/>
<path d="M2886 85 c-11 -8 -15 -15 -9 -15 6 0 16 7 23 15 16 19 11 19 -14 0z"/>
<path d="M92 585 c-11 -12 -10 -15 3 -15 8 0 15 7 15 15 0 18 -2 18 -18 0z"/>
<path d="M142 444 c4 -19 21 -19 24 1 1 8 -4 15 -13 15 -8 0 -13 -7 -11 -16z"/>
</g>
</svg>
