<?xml version="1.0" standalone="no"?>
<!DOCTYPE svg PUBLIC "-//W3C//DTD SVG 20010904//EN"
 "http://www.w3.org/TR/2001/REC-SVG-20010904/DTD/svg10.dtd">
<svg version="1.0" xmlns="http://www.w3.org/2000/svg"
 width="200.000000pt" height="200.000000pt" viewBox="0 0 172.000000 176.000000"
 preserveAspectRatio="xMidYMid meet">

<g transform="translate(0.000000,176.000000) scale(0.100000,-0.100000)"
fill="#000000" stroke="none">
<path d="M755 1594 c-11 -2 -44 -9 -73 -15 -263 -53 -494 -282 -563 -559 -19
-75 -17 -279 3 -350 81 -283 281 -480 559 -551 70 -18 268 -18 338 0 280 71
491 282 562 562 18 70 18 268 0 338 -70 276 -270 480 -546 558 -50 14 -243 26
-280 17z m-440 -604 c11 -33 -4 -41 -69 -39 l-61 3 -3 -37 c-2 -20 -7 -37 -12
-37 -5 0 -7 18 -6 40 2 22 0 43 -5 46 -4 2 -6 11 -3 18 3 8 -2 16 -13 19 -10
3 23 5 74 6 83 1 92 -1 98 -19z m85 -160 l0 -180 -25 0 -25 0 0 180 0 180 25
0 25 0 0 -180z m240 150 l0 -30 -105 0 -105 0 0 30 0 30 105 0 105 0 0 -30z
m233 3 c21 -23 26 -39 28 -87 l3 -59 -55 -48 -54 -48 53 -1 52 0 0 -50 0 -50
-130 0 -130 0 0 49 c0 49 1 50 75 116 75 68 95 105 55 105 -13 0 -20 -7 -20
-20 0 -18 -7 -20 -55 -20 l-55 0 0 37 c0 28 8 45 32 70 30 31 36 33 103 33 65
0 74 -3 98 -27z m116 -65 c38 -86 41 -99 41 -180 l0 -88 -30 0 -30 0 0 85 c0
80 -3 91 -44 180 l-45 95 33 0 c32 0 34 -3 75 -92z m115 70 c-3 -13 -18 -45
-32 -73 l-25 -50 -15 32 c-14 30 -14 36 3 73 15 33 23 40 47 40 26 0 29 -3 22
-22z m114 -7 c0 -20 -5 -31 -16 -33 -13 -3 -15 -19 -13 -118 2 -86 6 -118 17
-126 8 -6 14 -21 14 -33 0 -16 -6 -21 -27 -21 -14 0 -35 7 -45 17 -16 14 -18
33 -18 163 0 142 1 148 23 163 12 9 31 16 43 16 16 1 21 -5 22 -28z m95 9 c14
-17 17 -42 17 -162 0 -157 -7 -178 -62 -178 -22 0 -28 5 -28 21 0 12 7 27 14
33 11 8 15 38 16 116 2 134 3 130 -15 130 -16 0 -19 17 -9 44 9 22 46 20 67
-4z m108 -2 c0 -13 0 -77 -1 -144 -1 -109 1 -122 20 -139 16 -14 17 -20 8 -27
-10 -6 -10 -8 0 -8 7 0 10 -4 7 -10 -10 -15 -46 -12 -67 7 -16 14 -18 34 -18
180 l0 163 25 0 c19 0 25 -5 26 -22z m149 -140 c0 -175 -6 -198 -57 -198 -27
0 -32 32 -8 56 12 12 15 45 15 160 l0 144 25 0 25 0 0 -162z m-1423 60 c-3 -7
-5 -2 -5 12 0 14 2 19 5 13 2 -7 2 -19 0 -25z m413 -123 l0 -135 -24 0 -25 0
-3 135 -3 135 28 0 27 0 0 -135z m-300 39 c0 -24 -2 -26 -42 -23 l-43 4 3 -77
c3 -66 1 -78 -12 -78 -9 0 -16 5 -16 11 0 5 5 7 10 4 6 -3 10 -1 10 4 0 6 -6
11 -12 11 -9 0 -9 3 -3 8 6 4 10 32 9 62 -2 71 -1 68 -21 73 -13 3 -11 5 7 7
l25 2 -25 8 c-18 6 -7 8 43 9 66 1 67 1 67 -25z m-113 -91 c-3 -10 -5 -4 -5
12 0 17 2 24 5 18 2 -7 2 -21 0 -30z"/>
<path d="M698 953 c-14 -16 -23 -34 -21 -40 8 -21 38 -15 48 10 7 15 20 23 43
25 43 4 62 -12 62 -53 0 -28 -11 -42 -74 -99 -44 -39 -76 -76 -78 -91 l-5 -25
98 0 c81 0 99 3 99 15 0 12 -15 15 -77 15 l-78 1 78 72 c72 67 77 75 77 113 0
58 -30 84 -96 84 -42 0 -55 -5 -76 -27z"/>
<path d="M1530 976 c0 -2 7 -6 15 -10 8 -3 15 -1 15 4 0 6 -7 10 -15 10 -8 0
-15 -2 -15 -4z"/>
<path d="M1543 710 c-1 -11 2 -22 8 -25 5 -4 8 3 6 14 -4 28 -12 34 -14 11z"/>
<path d="M1521 713 c-1 -6 -4 -20 -7 -30 -5 -17 -5 -17 6 0 6 10 9 23 6 30 -3
9 -5 9 -5 0z"/>
</g>
</svg>
